<mxfile host="Electron" modified="2025-02-02T01:25:01.713Z" agent="Mozilla/5.0 (Windows NT 10.0; Win64; x64) AppleWebKit/537.36 (KHTML, like Gecko) draw.io/21.6.8 Chrome/114.0.5735.289 Electron/25.5.0 Safari/537.36" etag="AGUHbxaSY-Q3VmhBtzWX" version="21.6.8" type="device">
  <diagram name="Page-1" id="aEXz9GbgNk-Wav2oB7Ce">
    <mxGraphModel dx="1421" dy="821" grid="1" gridSize="9.8425" guides="1" tooltips="1" connect="1" arrows="1" fold="1" page="1" pageScale="1" pageWidth="2000" pageHeight="2000" math="0" shadow="0">
      <root>
        <mxCell id="0" />
        <mxCell id="1" parent="0" />
        <mxCell id="ldwvQuifN-9-D__bzeTj-1" value="Ninja" style="rounded=0;whiteSpace=wrap;html=1;" parent="1" vertex="1">
          <mxGeometry x="570.86" y="600" width="120" height="40" as="geometry" />
        </mxCell>
        <mxCell id="ldwvQuifN-9-D__bzeTj-2" value="MinGW Makefiles" style="rounded=0;whiteSpace=wrap;html=1;" parent="1" vertex="1">
          <mxGeometry x="740" y="600" width="120" height="40" as="geometry" />
        </mxCell>
        <mxCell id="ldwvQuifN-9-D__bzeTj-3" value="Microsoft Visual Studio" style="rounded=0;whiteSpace=wrap;html=1;" parent="1" vertex="1">
          <mxGeometry x="910.01" y="600" width="120" height="40" as="geometry" />
        </mxCell>
        <mxCell id="ldwvQuifN-9-D__bzeTj-5" value="" style="endArrow=classic;html=1;rounded=0;entryX=0.5;entryY=0;entryDx=0;entryDy=0;" parent="1" target="ldwvQuifN-9-D__bzeTj-1" edge="1">
          <mxGeometry width="50" height="50" relative="1" as="geometry">
            <mxPoint x="800" y="510" as="sourcePoint" />
            <mxPoint x="910" y="440" as="targetPoint" />
            <Array as="points">
              <mxPoint x="800" y="540" />
              <mxPoint x="631" y="540" />
            </Array>
          </mxGeometry>
        </mxCell>
        <mxCell id="ldwvQuifN-9-D__bzeTj-6" value="&lt;b&gt;Ninja&lt;/b&gt;" style="text;html=1;strokeColor=#2D7600;fillColor=#60a917;align=center;verticalAlign=middle;whiteSpace=wrap;rounded=0;fontColor=#000000;" parent="1" vertex="1">
          <mxGeometry x="569.92" y="550" width="60" height="30" as="geometry" />
        </mxCell>
        <mxCell id="ldwvQuifN-9-D__bzeTj-7" value="" style="endArrow=classic;html=1;rounded=0;entryX=0.5;entryY=0;entryDx=0;entryDy=0;" parent="1" target="ldwvQuifN-9-D__bzeTj-2" edge="1">
          <mxGeometry width="50" height="50" relative="1" as="geometry">
            <mxPoint x="800" y="540" as="sourcePoint" />
            <mxPoint x="870" y="550" as="targetPoint" />
          </mxGeometry>
        </mxCell>
        <mxCell id="ldwvQuifN-9-D__bzeTj-8" value="&lt;b&gt;Makefiles&lt;/b&gt;" style="text;html=1;strokeColor=#2D7600;fillColor=#60a917;align=center;verticalAlign=middle;whiteSpace=wrap;rounded=0;fontColor=#000000;" parent="1" vertex="1">
          <mxGeometry x="728.34" y="550" width="71.66" height="30" as="geometry" />
        </mxCell>
        <mxCell id="ldwvQuifN-9-D__bzeTj-9" value="" style="endArrow=classic;html=1;rounded=0;entryX=0.5;entryY=0;entryDx=0;entryDy=0;" parent="1" target="ldwvQuifN-9-D__bzeTj-3" edge="1">
          <mxGeometry width="50" height="50" relative="1" as="geometry">
            <mxPoint x="800" y="540" as="sourcePoint" />
            <mxPoint x="960" y="510" as="targetPoint" />
            <Array as="points">
              <mxPoint x="970" y="540" />
            </Array>
          </mxGeometry>
        </mxCell>
        <mxCell id="ldwvQuifN-9-D__bzeTj-10" value="&lt;b&gt;VS&lt;/b&gt;" style="text;html=1;strokeColor=#2D7600;fillColor=#60a917;align=center;verticalAlign=middle;whiteSpace=wrap;rounded=0;fontColor=#000000;" parent="1" vertex="1">
          <mxGeometry x="910" y="550" width="60" height="30" as="geometry" />
        </mxCell>
        <mxCell id="ldwvQuifN-9-D__bzeTj-11" value="game" style="rounded=0;whiteSpace=wrap;html=1;" parent="1" vertex="1">
          <mxGeometry x="474.92" y="867.87" width="120" height="40" as="geometry" />
        </mxCell>
        <mxCell id="ldwvQuifN-9-D__bzeTj-12" value="connector" style="rounded=0;whiteSpace=wrap;html=1;" parent="1" vertex="1">
          <mxGeometry x="629.92" y="867.87" width="120" height="40" as="geometry" />
        </mxCell>
        <mxCell id="ldwvQuifN-9-D__bzeTj-15" value="" style="endArrow=classic;html=1;rounded=0;entryX=0.5;entryY=0;entryDx=0;entryDy=0;" parent="1" edge="1">
          <mxGeometry width="50" height="50" relative="1" as="geometry">
            <mxPoint x="689.92" y="807.87" as="sourcePoint" />
            <mxPoint x="534.92" y="867.87" as="targetPoint" />
            <Array as="points">
              <mxPoint x="534.9199999999998" y="807.87" />
            </Array>
          </mxGeometry>
        </mxCell>
        <mxCell id="ldwvQuifN-9-D__bzeTj-17" value="" style="endArrow=classic;html=1;rounded=0;entryX=0.5;entryY=0;entryDx=0;entryDy=0;" parent="1" edge="1">
          <mxGeometry width="50" height="50" relative="1" as="geometry">
            <mxPoint x="689.79" y="778.87" as="sourcePoint" />
            <mxPoint x="689.79" y="867.8700000000002" as="targetPoint" />
          </mxGeometry>
        </mxCell>
        <mxCell id="ldwvQuifN-9-D__bzeTj-23" value="scripts\win\build.bat --config&amp;nbsp;&lt;font color=&quot;#ffffff&quot;&gt;CONFIG -&lt;/font&gt;-generator&amp;nbsp;&lt;b style=&quot;&quot;&gt;&lt;font color=&quot;#ff3333&quot;&gt;XXX&lt;br&gt;&lt;/font&gt;&lt;/b&gt;bash scripts\linux\build.bat --config&amp;nbsp;&lt;font color=&quot;#ffffff&quot;&gt;CONFIG -&lt;/font&gt;-generator&amp;nbsp;&lt;b&gt;&lt;font color=&quot;#ff3333&quot;&gt;XXX&lt;/font&gt;&lt;/b&gt;&lt;b style=&quot;&quot;&gt;&lt;font color=&quot;#ff3333&quot;&gt;&lt;br&gt;&lt;/font&gt;&lt;/b&gt;" style="text;html=1;strokeColor=none;fillColor=none;align=left;verticalAlign=middle;whiteSpace=wrap;rounded=0;" parent="1" vertex="1">
          <mxGeometry x="480" y="472.44" width="482.28" height="30" as="geometry" />
        </mxCell>
        <mxCell id="ldwvQuifN-9-D__bzeTj-29" value="Debug" style="rounded=0;whiteSpace=wrap;html=1;" parent="1" vertex="1">
          <mxGeometry x="480.0024999999999" y="400.0025" width="120" height="40" as="geometry" />
        </mxCell>
        <mxCell id="ldwvQuifN-9-D__bzeTj-30" value="Release" style="rounded=0;whiteSpace=wrap;html=1;" parent="1" vertex="1">
          <mxGeometry x="629.9224999999999" y="400.0025" width="120" height="40" as="geometry" />
        </mxCell>
        <mxCell id="ldwvQuifN-9-D__bzeTj-32" value="" style="endArrow=classic;html=1;rounded=0;entryX=0.5;entryY=0;entryDx=0;entryDy=0;" parent="1" edge="1">
          <mxGeometry width="50" height="50" relative="1" as="geometry">
            <mxPoint x="689.0024999999998" y="340.0025" as="sourcePoint" />
            <mxPoint x="540.0024999999998" y="400.0025" as="targetPoint" />
            <Array as="points">
              <mxPoint x="540.0024999999998" y="340.0025" />
            </Array>
          </mxGeometry>
        </mxCell>
        <mxCell id="ldwvQuifN-9-D__bzeTj-33" value="" style="endArrow=classic;html=1;rounded=0;entryX=0.5;entryY=0;entryDx=0;entryDy=0;" parent="1" edge="1">
          <mxGeometry width="50" height="50" relative="1" as="geometry">
            <mxPoint x="689.0024999999998" y="315.0025" as="sourcePoint" />
            <mxPoint x="688.9824999999998" y="400.0025000000002" as="targetPoint" />
          </mxGeometry>
        </mxCell>
        <mxCell id="nXXH1kAWKm3HQMa8ca4o-1" value="Ninja" style="rounded=0;whiteSpace=wrap;html=1;" vertex="1" parent="1">
          <mxGeometry x="570.8625000000001" y="659.4525" width="120" height="40" as="geometry" />
        </mxCell>
        <mxCell id="nXXH1kAWKm3HQMa8ca4o-2" value="Unix Makefiles" style="rounded=0;whiteSpace=wrap;html=1;" vertex="1" parent="1">
          <mxGeometry x="740.0025" y="659.4525" width="120" height="40" as="geometry" />
        </mxCell>
        <mxCell id="nXXH1kAWKm3HQMa8ca4o-3" value="" style="endArrow=none;dashed=1;html=1;rounded=0;" edge="1" parent="1">
          <mxGeometry width="50" height="50" relative="1" as="geometry">
            <mxPoint x="472" y="650" as="sourcePoint" />
            <mxPoint x="1063" y="650" as="targetPoint" />
          </mxGeometry>
        </mxCell>
        <mxCell id="nXXH1kAWKm3HQMa8ca4o-4" value="Windows" style="text;html=1;strokeColor=none;fillColor=none;align=left;verticalAlign=middle;whiteSpace=wrap;rounded=0;" vertex="1" parent="1">
          <mxGeometry x="474.91999999999996" y="620.08" width="55.43" height="30" as="geometry" />
        </mxCell>
        <mxCell id="nXXH1kAWKm3HQMa8ca4o-5" value="Linux" style="text;html=1;strokeColor=none;fillColor=none;align=left;verticalAlign=middle;whiteSpace=wrap;rounded=0;" vertex="1" parent="1">
          <mxGeometry x="474.92" y="659.4499999999999" width="55.43" height="19.21" as="geometry" />
        </mxCell>
        <mxCell id="nXXH1kAWKm3HQMa8ca4o-6" value="scripts\win\build.bat --config&amp;nbsp;&lt;b style=&quot;&quot;&gt;&lt;font color=&quot;#ff3333&quot;&gt;XXX &lt;/font&gt;&lt;/b&gt;&lt;font color=&quot;#ffffff&quot;&gt;-&lt;/font&gt;-generator&amp;nbsp;&lt;font color=&quot;#ffffff&quot;&gt;GENERATOR&lt;/font&gt;&lt;br&gt;bash scripts\linux\build.bat --config&amp;nbsp;&lt;b style=&quot;&quot;&gt;&lt;font color=&quot;#ff3333&quot;&gt;XXX &lt;/font&gt;&lt;/b&gt;&lt;font color=&quot;#ffffff&quot;&gt;-&lt;/font&gt;-generator&amp;nbsp;GENERATOR&lt;b style=&quot;&quot;&gt;&lt;font color=&quot;#ff3333&quot;&gt;&lt;br&gt;&lt;/font&gt;&lt;/b&gt;" style="text;html=1;strokeColor=none;fillColor=none;align=left;verticalAlign=middle;whiteSpace=wrap;rounded=0;" vertex="1" parent="1">
          <mxGeometry x="489.84" y="285.43" width="374.01" height="30" as="geometry" />
        </mxCell>
        <mxCell id="nXXH1kAWKm3HQMa8ca4o-7" value="scripts\win\build.bat --rebuild&amp;nbsp;&lt;b style=&quot;&quot;&gt;&lt;font color=&quot;#ff3333&quot;&gt;XXX&lt;/font&gt;&lt;/b&gt;&lt;br&gt;bash scripts\linux\build.bat --rebuild&amp;nbsp;&lt;b style=&quot;&quot;&gt;&lt;font color=&quot;#ff3333&quot;&gt;XXX&lt;/font&gt;&lt;/b&gt;&lt;b style=&quot;&quot;&gt;&lt;font color=&quot;#ff3333&quot;&gt;&lt;br&gt;&lt;/font&gt;&lt;/b&gt;" style="text;html=1;strokeColor=none;fillColor=none;align=left;verticalAlign=middle;whiteSpace=wrap;rounded=0;" vertex="1" parent="1">
          <mxGeometry x="485.99249999999984" y="748.0325" width="374.01" height="30" as="geometry" />
        </mxCell>
      </root>
    </mxGraphModel>
  </diagram>
</mxfile>
